# xmcd
#
# Track frame offsets:
#	150
#	29277
#	51700
#	73977
#
# Disc length: 1373 seconds
#
# Revision: 1
# Processed by: cddbd v1.5.1PL0 Copyright (c) Steve Scherf et al.
# Submitted via: CDex 1.50Beta5
#
DISCID=3c055b04
DTITLE=氣志團 - Secret Love Story
DYEAR=2003
DGENRE=Rock
TTITLE0=Secret Love Story
TTITLE1=スパトニック・シティ・ブビブビ
TTITLE2=一番星 （夢みる頃を過ぎてもVersion）
TTITLE3=Secret Love Story （Karaoke Version）
EXTD=
EXTT0=
EXTT1=
EXTT2=
EXTT3=
PLAYORDER=
